<mxfile host="app.diagrams.net" modified="2024-01-08T17:40:27.289Z" agent="Mozilla/5.0 (Windows NT 10.0; Win64; x64) AppleWebKit/537.36 (KHTML, like Gecko) Chrome/120.0.0.0 Safari/537.36" etag="yfvBSuDMAkwlSaW9boF0" version="22.1.17" type="github">
  <diagram name="Page-1" id="2YBvvXClWsGukQMizWep">
    <mxGraphModel dx="634" dy="207" grid="1" gridSize="10" guides="1" tooltips="1" connect="1" arrows="1" fold="1" page="1" pageScale="1" pageWidth="850" pageHeight="1100" math="0" shadow="0">
      <root>
        <mxCell id="0" />
        <mxCell id="1" parent="0" />
        <mxCell id="JaAHaDPewbdYvO-qXlsb-1" value="UserController" style="shape=umlLifeline;perimeter=lifelinePerimeter;whiteSpace=wrap;html=1;container=0;dropTarget=0;collapsible=0;recursiveResize=0;outlineConnect=0;portConstraint=eastwest;newEdgeStyle={&quot;edgeStyle&quot;:&quot;elbowEdgeStyle&quot;,&quot;elbow&quot;:&quot;vertical&quot;,&quot;curved&quot;:0,&quot;rounded&quot;:0};" parent="1" vertex="1">
          <mxGeometry x="40" y="40" width="100" height="770" as="geometry" />
        </mxCell>
        <mxCell id="JaAHaDPewbdYvO-qXlsb-2" value="Delete(id)" style="html=1;verticalAlign=bottom;startArrow=oval;endArrow=block;startSize=8;edgeStyle=elbowEdgeStyle;elbow=vertical;curved=0;rounded=0;entryX=-0.26;entryY=0.004;entryDx=0;entryDy=0;entryPerimeter=0;" parent="JaAHaDPewbdYvO-qXlsb-1" edge="1">
          <mxGeometry relative="1" as="geometry">
            <mxPoint x="-18" y="70" as="sourcePoint" />
            <mxPoint x="44.39999999999998" y="71.39999999999998" as="targetPoint" />
          </mxGeometry>
        </mxCell>
        <mxCell id="JaAHaDPewbdYvO-qXlsb-3" value="DeleteUser&lt;br&gt;CommandHandler" style="shape=umlLifeline;perimeter=lifelinePerimeter;whiteSpace=wrap;html=1;container=0;dropTarget=0;collapsible=0;recursiveResize=0;outlineConnect=0;portConstraint=eastwest;newEdgeStyle={&quot;edgeStyle&quot;:&quot;elbowEdgeStyle&quot;,&quot;elbow&quot;:&quot;vertical&quot;,&quot;curved&quot;:0,&quot;rounded&quot;:0};" parent="1" vertex="1">
          <mxGeometry x="220" y="40" width="160" height="770" as="geometry" />
        </mxCell>
        <mxCell id="JaAHaDPewbdYvO-qXlsb-4" value="" style="html=1;points=[];perimeter=orthogonalPerimeter;outlineConnect=0;targetShapes=umlLifeline;portConstraint=eastwest;newEdgeStyle={&quot;edgeStyle&quot;:&quot;elbowEdgeStyle&quot;,&quot;elbow&quot;:&quot;vertical&quot;,&quot;curved&quot;:0,&quot;rounded&quot;:0};" parent="JaAHaDPewbdYvO-qXlsb-3" vertex="1">
          <mxGeometry x="75" y="80" width="10" height="630" as="geometry" />
        </mxCell>
        <mxCell id="JaAHaDPewbdYvO-qXlsb-5" value="new DeleteUserCommand(id)" style="html=1;verticalAlign=bottom;endArrow=block;edgeStyle=elbowEdgeStyle;elbow=horizontal;curved=0;rounded=0;" parent="1" source="JaAHaDPewbdYvO-qXlsb-8" target="JaAHaDPewbdYvO-qXlsb-4" edge="1">
          <mxGeometry relative="1" as="geometry">
            <mxPoint x="95" y="130" as="sourcePoint" />
            <Array as="points">
              <mxPoint x="180" y="130" />
            </Array>
            <mxPoint x="290" y="130" as="targetPoint" />
          </mxGeometry>
        </mxCell>
        <mxCell id="JaAHaDPewbdYvO-qXlsb-6" value="FindEntityRecord&lt;br&gt;ById&amp;lt;User&amp;gt;" style="shape=umlLifeline;perimeter=lifelinePerimeter;whiteSpace=wrap;html=1;container=0;dropTarget=0;collapsible=0;recursiveResize=0;outlineConnect=0;portConstraint=eastwest;newEdgeStyle={&quot;edgeStyle&quot;:&quot;elbowEdgeStyle&quot;,&quot;elbow&quot;:&quot;vertical&quot;,&quot;curved&quot;:0,&quot;rounded&quot;:0};" parent="1" vertex="1">
          <mxGeometry x="420" y="40" width="121" height="770" as="geometry" />
        </mxCell>
        <mxCell id="JaAHaDPewbdYvO-qXlsb-7" value="" style="html=1;points=[];perimeter=orthogonalPerimeter;outlineConnect=0;targetShapes=umlLifeline;portConstraint=eastwest;newEdgeStyle={&quot;edgeStyle&quot;:&quot;elbowEdgeStyle&quot;,&quot;elbow&quot;:&quot;vertical&quot;,&quot;curved&quot;:0,&quot;rounded&quot;:0};" parent="JaAHaDPewbdYvO-qXlsb-6" vertex="1">
          <mxGeometry x="56" y="100" width="10" height="320" as="geometry" />
        </mxCell>
        <mxCell id="JaAHaDPewbdYvO-qXlsb-8" value="" style="rounded=0;whiteSpace=wrap;html=1;" parent="1" vertex="1">
          <mxGeometry x="85" y="110" width="10" height="680" as="geometry" />
        </mxCell>
        <mxCell id="JaAHaDPewbdYvO-qXlsb-10" value="Find(&lt;br&gt;IRepository: userRepository,&lt;br&gt;Id: id)" style="text;html=1;align=center;verticalAlign=middle;resizable=0;points=[];autosize=1;strokeColor=none;fillColor=none;" parent="1" vertex="1">
          <mxGeometry x="310" y="95" width="170" height="60" as="geometry" />
        </mxCell>
        <mxCell id="JaAHaDPewbdYvO-qXlsb-11" value="" style="endArrow=classic;html=1;rounded=0;" parent="1" edge="1">
          <mxGeometry width="50" height="50" relative="1" as="geometry">
            <mxPoint x="304.4999999999999" y="150" as="sourcePoint" />
            <mxPoint x="474" y="150" as="targetPoint" />
          </mxGeometry>
        </mxCell>
        <mxCell id="JaAHaDPewbdYvO-qXlsb-13" value="" style="html=1;verticalAlign=bottom;endArrow=block;edgeStyle=elbowEdgeStyle;elbow=vertical;curved=0;rounded=0;" parent="1" target="JaAHaDPewbdYvO-qXlsb-8" edge="1">
          <mxGeometry relative="1" as="geometry">
            <mxPoint x="95" y="130" as="sourcePoint" />
            <Array as="points" />
            <mxPoint x="295" y="130" as="targetPoint" />
          </mxGeometry>
        </mxCell>
        <mxCell id="JaAHaDPewbdYvO-qXlsb-20" value="UserRepository" style="shape=umlLifeline;perimeter=lifelinePerimeter;whiteSpace=wrap;html=1;container=0;dropTarget=0;collapsible=0;recursiveResize=0;outlineConnect=0;portConstraint=eastwest;newEdgeStyle={&quot;edgeStyle&quot;:&quot;elbowEdgeStyle&quot;,&quot;elbow&quot;:&quot;vertical&quot;,&quot;curved&quot;:0,&quot;rounded&quot;:0};" parent="1" vertex="1">
          <mxGeometry x="560" y="40" width="121" height="770" as="geometry" />
        </mxCell>
        <mxCell id="JaAHaDPewbdYvO-qXlsb-21" value="" style="html=1;points=[];perimeter=orthogonalPerimeter;outlineConnect=0;targetShapes=umlLifeline;portConstraint=eastwest;newEdgeStyle={&quot;edgeStyle&quot;:&quot;elbowEdgeStyle&quot;,&quot;elbow&quot;:&quot;vertical&quot;,&quot;curved&quot;:0,&quot;rounded&quot;:0};" parent="JaAHaDPewbdYvO-qXlsb-20" vertex="1">
          <mxGeometry x="55.5" y="125" width="10" height="75" as="geometry" />
        </mxCell>
        <mxCell id="suoW2hdL5Q51WoV0kera-1" value="" style="html=1;points=[];perimeter=orthogonalPerimeter;outlineConnect=0;targetShapes=umlLifeline;portConstraint=eastwest;newEdgeStyle={&quot;edgeStyle&quot;:&quot;elbowEdgeStyle&quot;,&quot;elbow&quot;:&quot;vertical&quot;,&quot;curved&quot;:0,&quot;rounded&quot;:0};" parent="JaAHaDPewbdYvO-qXlsb-20" vertex="1">
          <mxGeometry x="55.5" y="620" width="10" height="30" as="geometry" />
        </mxCell>
        <mxCell id="JaAHaDPewbdYvO-qXlsb-26" value="&lt;font style=&quot;font-size: 11px;&quot;&gt;condition&lt;/font&gt;" style="shape=umlFrame;whiteSpace=wrap;html=1;pointerEvents=0;direction=east;" parent="1" vertex="1">
          <mxGeometry x="60" y="500" width="340" height="270" as="geometry" />
        </mxCell>
        <mxCell id="JaAHaDPewbdYvO-qXlsb-27" value="[ Result.IsFailed ]" style="text;html=1;align=center;verticalAlign=middle;resizable=0;points=[];autosize=1;strokeColor=none;fillColor=default;fontSize=10;" parent="1" vertex="1">
          <mxGeometry x="250" y="530" width="100" height="30" as="geometry" />
        </mxCell>
        <mxCell id="JaAHaDPewbdYvO-qXlsb-28" value="" style="html=1;verticalAlign=bottom;endArrow=open;dashed=1;endSize=8;edgeStyle=elbowEdgeStyle;elbow=vertical;curved=0;rounded=0;strokeColor=default;" parent="1" source="JaAHaDPewbdYvO-qXlsb-4" edge="1">
          <mxGeometry x="0.0051" relative="1" as="geometry">
            <mxPoint x="96" y="567" as="targetPoint" />
            <Array as="points" />
            <mxPoint x="294" y="568.0031034482759" as="sourcePoint" />
            <mxPoint as="offset" />
          </mxGeometry>
        </mxCell>
        <mxCell id="JaAHaDPewbdYvO-qXlsb-29" value="[else]" style="text;html=1;align=center;verticalAlign=middle;resizable=0;points=[];autosize=1;strokeColor=none;fillColor=default;fontSize=10;imageWidth=24;arcSize=12;strokeOpacity=100;resizeHeight=0;" parent="1" vertex="1">
          <mxGeometry x="275" y="620" width="50" height="30" as="geometry" />
        </mxCell>
        <mxCell id="JaAHaDPewbdYvO-qXlsb-30" value="&lt;font style=&quot;font-size: 9px;&quot;&gt;CustomGenericResult(&lt;br&gt;result,&lt;br style=&quot;font-size: 9px;&quot;&gt;data: null,&lt;br style=&quot;font-size: 9px;&quot;&gt;&amp;nbsp;statusCode: BadRequest)&lt;/font&gt;" style="text;html=1;align=center;verticalAlign=middle;resizable=0;points=[];autosize=1;strokeColor=none;fillColor=default;fontSize=9;" parent="1" vertex="1">
          <mxGeometry x="135" y="540" width="130" height="60" as="geometry" />
        </mxCell>
        <mxCell id="JaAHaDPewbdYvO-qXlsb-31" value="UnitOfWork" style="shape=umlLifeline;perimeter=lifelinePerimeter;whiteSpace=wrap;html=1;container=0;dropTarget=0;collapsible=0;recursiveResize=0;outlineConnect=0;portConstraint=eastwest;newEdgeStyle={&quot;edgeStyle&quot;:&quot;elbowEdgeStyle&quot;,&quot;elbow&quot;:&quot;vertical&quot;,&quot;curved&quot;:0,&quot;rounded&quot;:0};" parent="1" vertex="1">
          <mxGeometry x="710" y="40" width="121" height="770" as="geometry" />
        </mxCell>
        <mxCell id="JaAHaDPewbdYvO-qXlsb-32" value="" style="html=1;points=[];perimeter=orthogonalPerimeter;outlineConnect=0;targetShapes=umlLifeline;portConstraint=eastwest;newEdgeStyle={&quot;edgeStyle&quot;:&quot;elbowEdgeStyle&quot;,&quot;elbow&quot;:&quot;vertical&quot;,&quot;curved&quot;:0,&quot;rounded&quot;:0};" parent="JaAHaDPewbdYvO-qXlsb-31" vertex="1">
          <mxGeometry x="55.5" y="665" width="10" height="20" as="geometry" />
        </mxCell>
        <mxCell id="JaAHaDPewbdYvO-qXlsb-33" value="" style="endArrow=none;dashed=1;html=1;rounded=0;" parent="1" edge="1">
          <mxGeometry width="50" height="50" relative="1" as="geometry">
            <mxPoint x="30" y="604.52" as="sourcePoint" />
            <mxPoint x="333" y="604.52" as="targetPoint" />
          </mxGeometry>
        </mxCell>
        <mxCell id="JaAHaDPewbdYvO-qXlsb-34" value="" style="endArrow=classic;html=1;rounded=0;" parent="1" edge="1">
          <mxGeometry width="50" height="50" relative="1" as="geometry">
            <mxPoint x="305.7499999999999" y="713" as="sourcePoint" />
            <mxPoint x="764" y="713" as="targetPoint" />
          </mxGeometry>
        </mxCell>
        <mxCell id="JaAHaDPewbdYvO-qXlsb-35" value="SaveChange()" style="text;html=1;align=center;verticalAlign=middle;resizable=0;points=[];autosize=1;strokeColor=none;fillColor=none;" parent="1" vertex="1">
          <mxGeometry x="303" y="690" width="100" height="30" as="geometry" />
        </mxCell>
        <mxCell id="JaAHaDPewbdYvO-qXlsb-36" value="" style="html=1;verticalAlign=bottom;endArrow=open;dashed=1;endSize=8;edgeStyle=elbowEdgeStyle;elbow=vertical;curved=0;rounded=0;strokeColor=default;" parent="1" edge="1">
          <mxGeometry x="0.0051" relative="1" as="geometry">
            <mxPoint x="95" y="737" as="targetPoint" />
            <Array as="points" />
            <mxPoint x="294" y="737" as="sourcePoint" />
            <mxPoint as="offset" />
          </mxGeometry>
        </mxCell>
        <mxCell id="JaAHaDPewbdYvO-qXlsb-37" value="&lt;font style=&quot;font-size: 9px;&quot;&gt;CustomGenericResult(&lt;br&gt;result,&lt;br style=&quot;font-size: 9px;&quot;&gt;data: user,&lt;br style=&quot;font-size: 9px;&quot;&gt;&amp;nbsp;statusCode: Ok)&lt;/font&gt;" style="text;html=1;align=center;verticalAlign=middle;resizable=0;points=[];autosize=1;strokeColor=none;fillColor=default;fontSize=9;" parent="1" vertex="1">
          <mxGeometry x="144" y="710" width="110" height="60" as="geometry" />
        </mxCell>
        <mxCell id="JaAHaDPewbdYvO-qXlsb-38" value="" style="endArrow=classic;html=1;rounded=0;" parent="1" edge="1">
          <mxGeometry width="50" height="50" relative="1" as="geometry">
            <mxPoint x="486" y="174" as="sourcePoint" />
            <mxPoint x="614" y="174" as="targetPoint" />
          </mxGeometry>
        </mxCell>
        <mxCell id="JaAHaDPewbdYvO-qXlsb-39" value="FindById(id)" style="text;html=1;align=center;verticalAlign=middle;resizable=0;points=[];autosize=1;strokeColor=none;fillColor=none;" parent="1" vertex="1">
          <mxGeometry x="510" y="150" width="90" height="30" as="geometry" />
        </mxCell>
        <mxCell id="JaAHaDPewbdYvO-qXlsb-40" value="" style="html=1;verticalAlign=bottom;endArrow=open;dashed=1;endSize=8;edgeStyle=elbowEdgeStyle;elbow=vertical;curved=0;rounded=0;" parent="1" target="JaAHaDPewbdYvO-qXlsb-7" edge="1">
          <mxGeometry x="0.0051" relative="1" as="geometry">
            <mxPoint x="444.9999999999999" y="227.00310344827588" as="targetPoint" />
            <Array as="points" />
            <mxPoint x="616.5" y="227" as="sourcePoint" />
            <mxPoint as="offset" />
          </mxGeometry>
        </mxCell>
        <mxCell id="JaAHaDPewbdYvO-qXlsb-41" value="User" style="text;html=1;strokeColor=none;fillColor=none;align=center;verticalAlign=middle;whiteSpace=wrap;rounded=0;" parent="1" vertex="1">
          <mxGeometry x="510" y="204" width="85" height="30" as="geometry" />
        </mxCell>
        <mxCell id="JaAHaDPewbdYvO-qXlsb-42" value="&lt;font style=&quot;font-size: 11px;&quot;&gt;condition&lt;/font&gt;" style="shape=umlFrame;whiteSpace=wrap;html=1;pointerEvents=0;direction=east;" parent="1" vertex="1">
          <mxGeometry x="270" y="240" width="270" height="210" as="geometry" />
        </mxCell>
        <mxCell id="JaAHaDPewbdYvO-qXlsb-43" value="[ user is null ]" style="text;html=1;align=center;verticalAlign=middle;resizable=0;points=[];autosize=1;strokeColor=none;fillColor=default;fontSize=10;" parent="1" vertex="1">
          <mxGeometry x="445" y="250" width="80" height="30" as="geometry" />
        </mxCell>
        <mxCell id="JaAHaDPewbdYvO-qXlsb-44" value="" style="html=1;verticalAlign=bottom;endArrow=open;dashed=1;endSize=8;edgeStyle=elbowEdgeStyle;elbow=vertical;curved=0;rounded=0;strokeColor=default;" parent="1" source="JaAHaDPewbdYvO-qXlsb-7" edge="1">
          <mxGeometry x="0.0051" relative="1" as="geometry">
            <mxPoint x="306" y="307" as="targetPoint" />
            <Array as="points" />
            <mxPoint x="505" y="307" as="sourcePoint" />
            <mxPoint as="offset" />
          </mxGeometry>
        </mxCell>
        <mxCell id="JaAHaDPewbdYvO-qXlsb-46" value="[else]" style="text;html=1;align=center;verticalAlign=middle;resizable=0;points=[];autosize=1;strokeColor=none;fillColor=default;fontSize=10;imageWidth=24;arcSize=12;strokeOpacity=100;resizeHeight=0;" parent="1" vertex="1">
          <mxGeometry x="455" y="350" width="50" height="30" as="geometry" />
        </mxCell>
        <mxCell id="JaAHaDPewbdYvO-qXlsb-45" value="Result.Fail(message)" style="text;html=1;align=center;verticalAlign=middle;resizable=0;points=[];autosize=1;strokeColor=none;fillColor=default;fontSize=9;" parent="1" vertex="1">
          <mxGeometry x="335" y="300" width="110" height="20" as="geometry" />
        </mxCell>
        <mxCell id="JaAHaDPewbdYvO-qXlsb-58" value="" style="endArrow=none;dashed=1;html=1;rounded=0;" parent="1" edge="1">
          <mxGeometry width="50" height="50" relative="1" as="geometry">
            <mxPoint x="232" y="344.5" as="sourcePoint" />
            <mxPoint x="580" y="345" as="targetPoint" />
          </mxGeometry>
        </mxCell>
        <mxCell id="JaAHaDPewbdYvO-qXlsb-60" value="" style="html=1;verticalAlign=bottom;endArrow=open;dashed=1;endSize=8;edgeStyle=elbowEdgeStyle;elbow=vertical;curved=0;rounded=0;strokeColor=default;" parent="1" edge="1">
          <mxGeometry x="0.0051" relative="1" as="geometry">
            <mxPoint x="305" y="412" as="targetPoint" />
            <Array as="points" />
            <mxPoint x="475" y="412" as="sourcePoint" />
            <mxPoint as="offset" />
          </mxGeometry>
        </mxCell>
        <mxCell id="JaAHaDPewbdYvO-qXlsb-59" value="Result.Ok(user)" style="text;html=1;align=center;verticalAlign=middle;resizable=0;points=[];autosize=1;strokeColor=none;fillColor=default;fontSize=9;" parent="1" vertex="1">
          <mxGeometry x="344" y="405" width="90" height="20" as="geometry" />
        </mxCell>
        <mxCell id="suoW2hdL5Q51WoV0kera-2" value="" style="endArrow=classic;html=1;rounded=0;" parent="1" edge="1">
          <mxGeometry width="50" height="50" relative="1" as="geometry">
            <mxPoint x="305.7499999999999" y="673" as="sourcePoint" />
            <mxPoint x="615.5" y="673" as="targetPoint" />
          </mxGeometry>
        </mxCell>
        <mxCell id="suoW2hdL5Q51WoV0kera-3" value="Remove(user)" style="text;html=1;align=center;verticalAlign=middle;resizable=0;points=[];autosize=1;strokeColor=none;fillColor=none;" parent="1" vertex="1">
          <mxGeometry x="303" y="650" width="100" height="30" as="geometry" />
        </mxCell>
      </root>
    </mxGraphModel>
  </diagram>
</mxfile>
